# xmcd CD database file
#
# Track frame offsets:
#	150
#	14375
#	31115
#	43665
#	58557
#	71125
#	79275
#	94592
#	109170
#	122555
#	132790
#	144250
#	160262
#	173925
#	189602
#	202367
#	214137
#	229632
#	241225
#	252737
#
# Disc length: 3514 seconds
#
# Revision: 1
# Processed by: cddbd v1.5.1PL0 Copyright (c) Steve Scherf et al.
# Submitted via: CDex 1.51
#
DISCID=200db814
DTITLE=Nat King Cole - Nat King Cole Vol. 3
DYEAR=1990
DGENRE=Jazz
TTITLE0=It's Only A Paper Moon
TTITLE1=(Get Your Kicks On) Route 66!
TTITLE2=Caravan
TTITLE3=Ain't Misbehavin'
TTITLE4=When Sunny Gets Blue
TTITLE5=Avalon
TTITLE6=Mood Indigo
TTITLE7=Don't Get Around Much Anymore
TTITLE8=Tenderly
TTITLE9=Just One Of Those Things
TTITLE10=When Your Lover Has Gone
TTITLE11=In Other Words (Fly Me To The Moon)
TTITLE12=September Song
TTITLE13=But Beautiful
TTITLE14=Love Is Here To Stay
TTITLE15=Too Marvelous For Words
TTITLE16=Embraceable You
TTITLE17=Makin' Whoopee
TTITLE18=Lover Come Back To Me
TTITLE19=St. Louis Blues
EXTD=YEAR: 1990
EXTT0=
EXTT1=
EXTT2=
EXTT3=
EXTT4=
EXTT5=
EXTT6=
EXTT7=
EXTT8=
EXTT9=
EXTT10=
EXTT11=
EXTT12=
EXTT13=
EXTT14=
EXTT15=
EXTT16=
EXTT17=
EXTT18=
EXTT19=
PLAYORDER=
